<?xml version="1.0" encoding="utf-8"?>
<svg viewBox="38.1491 1.4066 179.4111 252.8972" xmlns="http://www.w3.org/2000/svg">
  <g style="stroke: none; stroke-width: 0; stroke-dasharray: none; stroke-linecap: butt; stroke-linejoin: miter; stroke-miterlimit: 10; fill: none; fill-rule: nonzero; opacity: 1;" transform="matrix(2.8099999427795415, 0, 0, 2.809999942779541, 1.4065934590602183, 1.4065934590602183)">
    <path d="M 68.929 30.449 L 68.348 30.449 C 66.873 30.449 65.492 30.85 64.304 31.549000000000003 C 63.856 27.564000000000004 60.464 24.455000000000002 56.361000000000004 24.455000000000002 L 55.78 24.455000000000002 C 54.168 24.455000000000002 52.665 24.935000000000002 51.407000000000004 25.76 C 50.375 22.540000000000003 47.352000000000004 20.202 43.793000000000006 20.202 L 43.212 20.202 C 41.758 20.202 40.394000000000005 20.592000000000002 39.218 21.273000000000003 L 39.218 7.994 C 39.218 3.586 35.632 0 31.225 0 L 30.643 0 C 26.236 0 22.65 3.586 22.65 7.994 L 22.65 39.853 L 18.503 43.001000000000005 C 15.52 45.266000000000005 13.629 48.56100000000001 13.178 52.278000000000006 C 12.727 55.99700000000001 13.776000000000002 59.648 16.132 62.56 L 28.465000000000003 77.807 L 28.465000000000003 84.016 C 28.465000000000003 87.31500000000001 31.150000000000002 89.99900000000001 34.449000000000005 89.99900000000001 L 64.904 89.99900000000001 C 68.203 89.99900000000001 70.887 87.31400000000001 70.887 84.016 L 70.887 78.11500000000001 C 74.784 73.29400000000001 76.923 67.28 76.923 61.09700000000001 L 76.923 38.443 C 76.923 34.035 73.337 30.449 68.929 30.449 Z" style="stroke: none; stroke-width: 1; stroke-dasharray: none; stroke-linecap: butt; stroke-linejoin: miter; stroke-miterlimit: 10; fill: rgb(0,0,0); fill-rule: nonzero; opacity: 1;" transform=" matrix(1 0 0 1 0 0) " stroke-linecap="round"/>
    <path d="M 72.923 61.098 C 72.923 66.548 70.971 71.846 67.424 76.026 C 67.08800000000001 76.387 66.887 76.86999999999999 66.887 77.39 L 66.887 84.017 C 66.887 85.11099999999999 65.997 86 64.904 86 L 34.449 86 C 33.355 86 32.464999999999996 85.11 32.464999999999996 84.017 L 32.464999999999996 77.1 C 32.464999999999996 76.642 32.30799999999999 76.198 32.019999999999996 75.842 L 19.242 60.045 C 17.573 57.982 16.830000000000002 55.395 17.149 52.760000000000005 C 17.468 50.126000000000005 18.808 47.791000000000004 20.922 46.187000000000005 L 22.650000000000002 44.87500000000001 L 22.650000000000002 53.23500000000001 C 22.650000000000002 54.339000000000006 23.546000000000003 55.23500000000001 24.650000000000002 55.23500000000001 C 25.754 55.23500000000001 26.650000000000002 54.339000000000006 26.650000000000002 53.23500000000001 L 26.650000000000002 40.86500000000001 C 26.650000000000002 40.851000000000006 26.650000000000002 40.836000000000006 26.650000000000002 40.82200000000001 L 26.650000000000002 7.994 C 26.65 5.792 28.441 4 30.643 4 L 31.225 4 C 33.427 4 35.218 5.792 35.218 7.994 L 35.218 28.197 C 35.218 28.197 35.218 28.197 35.218 28.198 C 35.218 28.199 35.218 28.198 35.218 28.199 L 35.231 45.003 C 35.232 46.107 36.127 47.002 37.231 47.002 C 37.231 47.002 37.232 47.002 37.232 47.002 C 38.336 47.001000000000005 39.232 46.106 39.231 45.001000000000005 L 39.218 28.199000000000005 C 39.218 25.997000000000007 41.010000000000005 24.205000000000005 43.212 24.205000000000005 L 43.793000000000006 24.205000000000005 C 45.995000000000005 24.205000000000005 47.787000000000006 25.997000000000007 47.787000000000006 28.199000000000005 L 47.787000000000006 32.452000000000005 C 47.787000000000006 32.452000000000005 47.787000000000006 32.453 47.787000000000006 32.453 C 47.787000000000006 32.453 47.787000000000006 32.454 47.787000000000006 32.454 L 47.800000000000004 45.005 C 47.801 46.109 48.696000000000005 47.003 49.800000000000004 47.003 C 49.801 47.003 49.801 47.003 49.80200000000001 47.003 C 50.906000000000006 47.002 51.80100000000001 46.106 51.800000000000004 45.001 L 51.787000000000006 32.452 C 51.787000000000006 30.25 53.578 28.458 55.78000000000001 28.458 L 56.36100000000001 28.458 C 58.56300000000001 28.458 60.35500000000001 30.25 60.35500000000001 32.452 L 60.35500000000001 37.768 C 60.34400000000001 37.853 60.32900000000001 37.937 60.33000000000001 38.024 L 60.34300000000001 45.005 C 60.34500000000001 46.109 61.24000000000001 47.002 62.34300000000001 47.002 C 62.34400000000001 47.002 62.34500000000001 47.002 62.34700000000001 47.002 C 63.45100000000001 47 64.34500000000001 46.103 64.343 44.999 L 64.33200000000001 38.685 C 64.34200000000001 38.605000000000004 64.35600000000001 38.527 64.35600000000001 38.445 C 64.35600000000001 36.243 66.147 34.451 68.349 34.451 L 68.93 34.451 C 71.132 34.451 72.924 36.243 72.924 38.445 L 72.924 61.098 L 72.923 61.098 Z" style="stroke: none; stroke-width: 1; stroke-dasharray: none; stroke-linecap: butt; stroke-linejoin: miter; stroke-miterlimit: 10; fill-rule: nonzero; opacity: 1; fill: rgb(255, 255, 255);" transform=" matrix(1 0 0 1 0 0) " stroke-linecap="round"/>
  </g>
</svg>